# xmcd
#
# Track frame offsets:
#  150
#  22031
#  44124
#  59831
#  75398
#  89493
#  97802
#  112016
#  128096
#  146455
#  167939
#  182940
#  204431
#  222533
#  237054
#  258540
#  281622
#  299724
#  317622
#  335335
#
# Disc length: 4664 seconds
#
# Revision: 0
# Processed by: cddbd v1.5.1PL2 Copyright (c) Steve Scherf et al.
# Submitted via: Collectorz.com_Music_Collector 6.9
#
DISCID=3b123614
DTITLE=Various Artist - Urban Car Tunes 2 - Long Distance Megamix 02
DYEAR=2006
DGENRE=*  Various
TTITLE0=Electro Freestyler - 2 Live Crew
TTITLE1=Freak-A-Holic - Egyptian Lover
TTITLE2=Lay Your Body Down - Dr Dre Ft. World Class Wreckin' Crew
TTITLE3=Sexy Baby - Dark Star
TTITLE4=Hypergroove - Mistress Ft. DJ Madama
TTITLE5=Bend A Corner - Kon Artis of D12 and Ras Kass
TTITLE6=What Is Your Sign - Spyder D
TTITLE7=World Class Freak - World Class Wreckin' Crew Ft. Dr Dre
TTITLE8=The Fly - Dr Dre
TTITLE9=Basstronic - The Unknown DJ
TTITLE10=Sweet Juice - Rhyme Sundicate
TTITLE11=Surgery - Dr Dre
TTITLE12=Egypt, Egypt - Egyptian Lover
TTITLE13=Breakdown - The Unknow DJ Ft. Snoop Dogg and Valerie
TTITLE14=Mission Impossible - World Class Wreckin' Crew Ft. Dr Dre
TTITLE15=It Ain't Tough - The Arabian Prince and Sheiks
TTITLE16=Revenge Of The X-Men - X-Men
TTITLE17=He's Bionic - Dr Dre V.S. World Class Wreckin' Crew
TTITLE18=Professor X - X-Men
TTITLE19=Boo Yaws - World Class Wreckin'  Crew
EXTD=
EXTT0=
EXTT1=
EXTT2=
EXTT3=
EXTT4=
EXTT5=
EXTT6=
EXTT7=
EXTT8=
EXTT9=
EXTT10=
EXTT11=
EXTT12=
EXTT13=
EXTT14=
EXTT15=
EXTT16=
EXTT17=
EXTT18=
EXTT19=
PLAYORDER=
